<svg xmlns="http://www.w3.org/2000/svg" width="32" height="32" fill="none" viewBox="0 0 32 32"><path fill="color(display-p3 .0902 .0784 .0706)" d="M0 0h32v32H0z"/><path fill="color(display-p3 .9882 .9765 .9686)" fill-rule="evenodd" d="M9.468 15.023c-.166 0-.366-.033-.449-.066l1.38-4.487c.05-.166.298-.282.697-.282.731 0 1.18.565 1.18 1.579 0 1.628-1.113 3.256-2.808 3.256Zm-1.18 6.48c-.93 0-1.163-.332-1.063-.698l1.445-4.752c.2-.05.399-.083.648-.083.698 0 1.413.366 1.413 1.645 0 1.695-.93 3.888-2.443 3.888Zm-6.879.499-.15.498h7.013c3.505 0 6.447-1.23 6.447-4.22 0-1.479-1.363-2.609-3.141-2.659l.05-.15c2.26-.149 4.187-1.644 4.187-3.555 0-1.529-1.33-2.708-4.22-2.708H5.33l-.15.498c1.429 0 1.629.465 1.33 1.446l-2.875 9.404c-.3.98-.98 1.446-2.227 1.446Zm26.966 0c-1.113 0-1.662-.316-1.961-1.463l-1.745-6.995 3.49-2.84c.863-.699 1.894-.998 2.708-.998L31 9.208h-5.633l-.15.498c.532 0 .832.2.832.548 0 .316-.266.765-.831 1.297l-4.088 3.788 1.246 5.333c.25 1.03.1 1.33-1.212 1.33l-.117.498h7.162l.166-.498ZM16.943 9.706c1.43 0 1.628.465 1.33 1.446l-2.875 9.404c-.3.98-.98 1.446-2.227 1.446l-.15.498H20.5l.15-.498c-1.43 0-1.63-.466-1.33-1.446l2.858-9.404c.3-.98.947-1.446 2.093-1.446l.133-.498h-7.31l-.15.498Z" clip-rule="evenodd"/></svg>