<svg width="32" height="32" viewBox="0 0 32 32" fill="none" xmlns="http://www.w3.org/2000/svg">
<g clip-path="url(#clip0_1208_2)">
<circle cx="16" cy="16" r="16" fill="black" style="fill:black;fill-opacity:1;"/>
<path fill-rule="evenodd" clip-rule="evenodd" d="M4.05925 17.2C4.66132 23.264 9.77758 28 16 28C22.2224 28 27.3387 23.264 27.9408 17.2H25.5257C24.9352 21.9356 20.8955 25.6 16 25.6C11.1045 25.6 7.06479 21.9356 6.47427 17.2H4.05925ZM8.89955 17.2C9.47084 20.6053 12.4324 23.2 16 23.2C19.5676 23.2 22.5292 20.6053 23.1005 17.2H20.6488C20.1159 19.2703 18.2366 20.8 16 20.8C13.7634 20.8 11.8841 19.2703 11.3512 17.2H8.89955Z" fill="white" style="fill:white;fill-opacity:1;"/>
<path fill-rule="evenodd" clip-rule="evenodd" d="M18.8971 12.4H28V14.8H4V12.4H13.1029L7.95147 7.24853L9.64853 5.55147L14.8 10.7029V4H17.2V10.7029L22.3515 5.55147L24.0485 7.24853L18.8971 12.4Z" fill="white" style="fill:white;fill-opacity:1;"/>
</g>
<defs>
<clipPath id="clip0_1208_2">
<rect width="32" height="32" fill="white" style="fill:white;fill-opacity:1;"/>
</clipPath>
</defs>
</svg>
